<svg xmlns="http://www.w3.org/2000/svg" xmlns:xlink="http://www.w3.org/1999/xlink" viewBox="0,0,256,256" width="96px" height="96px" fill-rule="nonzero"><g fill="#ffffff" fill-rule="nonzero" stroke="none" stroke-width="1" stroke-linecap="butt" stroke-linejoin="miter" stroke-miterlimit="10" stroke-dasharray="" stroke-dashoffset="0" font-family="none" font-weight="none" font-size="none" text-anchor="none" style="mix-blend-mode: normal"><g transform="scale(8,8)"><path d="M12,4c-2.19733,0 -4,1.80267 -4,4c-2.19733,0 -4,1.80267 -4,4v12c0,2.19733 1.80267,4 4,4h12c2.19733,0 4,-1.80267 4,-4c2.19733,0 4,-1.80267 4,-4v-12c0,-2.19733 -1.80267,-4 -4,-4zM12,6h12c1.11667,0 2,0.88333 2,2v12c0,1.11667 -0.88333,2 -2,2h-13c-0.56503,0 -1,-0.43497 -1,-1v-7h2v4c0,1.09306 0.90694,2 2,2h4h2h2c1.09306,0 2,-0.90694 2,-2v-7c0,-1.64497 -1.35503,-3 -3,-3h-11c0,-1.11667 0.88333,-2 2,-2zM8,10h13c0.56503,0 1,0.43497 1,1v7h-2v-4c0,-1.09306 -0.90694,-2 -2,-2h-4h-2h-2c-1.09306,0 -2,0.90694 -2,2v7c0,1.64497 1.35503,3 3,3h11c0,1.11667 -0.88333,2 -2,2h-12c-1.11667,0 -2,-0.88333 -2,-2v-12c0,-1.11667 0.88333,-2 2,-2zM14,14h4v4h-4z"></path></g></g></svg>